<?xml version="1.0" encoding="UTF-8" standalone="no"?>
<!DOCTYPE svg PUBLIC "-//W3C//DTD SVG 1.1//EN" "http://www.w3.org/Graphics/SVG/1.1/DTD/svg11.dtd">
<svg width="2134px" height="2134px" version="1.1" xmlns="http://www.w3.org/2000/svg" xmlns:xlink="http://www.w3.org/1999/xlink" xml:space="preserve" xmlns:serif="http://www.serif.com/" style="fill-rule:evenodd;clip-rule:evenodd;stroke-linecap:round;stroke-linejoin:round;stroke-miterlimit:1.5;">
    <g transform="matrix(2.08333,0,0,2.08333,0,0)">
        <g transform="matrix(1.55824,0,0,1.56131,-126.451,-130.982)">
            <circle cx="410.975" cy="416.057" r="307.569" style="fill:rgb(79,165,205);stroke:rgb(0,4,166);stroke-width:0.19px;"/>
        </g>
        <g transform="matrix(1.64395,0,0,1.73011,-163.743,-234.08)">
            <path d="M694.648,506.089C659.875,602.685 576.787,714.438 395.826,710.968C220.374,707.604 141.964,559.279 130.641,503.195C127.326,486.78 190.942,467.544 197.784,468.456C204.626,469.368 266.295,499.156 296.845,500.922C327.395,502.688 343.371,471.552 373.383,474.745C403.394,477.938 422.715,481.833 457.305,498.181C492.855,514.982 536.67,481.023 556.74,472.251C576.81,463.479 590.064,456.918 614.883,472.181C639.702,487.444 696.41,501.196 694.648,506.089Z" style="fill:rgb(0,4,166);stroke:rgb(0,4,166);stroke-width:0.12px;"/>
        </g>
        <g transform="matrix(1.49949,0.424677,-0.472975,1.67464,90.9188,-326.702)">
            <path d="M396.936,501.795L397.322,228.526" style="fill:none;stroke:rgb(255,97,0);stroke-width:27.84px;"/>
        </g>
        <g transform="matrix(1.95258,0.55334,-0.506917,1.79581,-76.6501,-414.749)">
            <path d="M418.643,428.68L418.643,569.127C418.643,576.212 413.354,581.965 406.839,581.965L383.231,581.965C376.716,581.965 371.427,576.212 371.427,569.127L371.427,428.68C371.427,421.595 376.716,415.842 383.231,415.842L406.839,415.842C413.354,415.842 418.643,421.595 418.643,428.68Z" style="fill:rgb(255,130,0);stroke:rgb(255,130,0);stroke-width:22.56px;"/>
        </g>
        <g transform="matrix(2.49233,0,0,1.55609,-205.35,-34.665)">
            <path d="M109.146,426.462C109.146,426.462 130.137,397.008 149.617,393.757C163.468,391.445 175.339,420.52 210.865,424.111C246.391,427.702 235.861,397.203 268.247,399.022C300.633,400.841 293.612,427.591 340.139,426.146C386.665,424.702 373.085,388.966 402.943,387.413C431.357,385.936 432.324,425.345 466.078,424.86" style="fill:none;stroke:white;stroke-width:22.14px;"/>
        </g>
        <g transform="matrix(2.28812,0.648427,-0.592806,2.10008,-161.773,-555.733)">
            <ellipse cx="389.035" cy="336.322" rx="9.807" ry="10.035" style="fill:rgb(255,130,0);stroke:rgb(255,130,0);stroke-width:21.9px;"/>
        </g>
        <g transform="matrix(2.48479,0.704162,-0.694607,2.46072,-235.742,-638.623)">
            <ellipse cx="394.287" cy="232.874" rx="18.07" ry="17.073" style="fill:rgb(255,130,0);stroke:rgb(255,130,0);stroke-width:18.67px;"/>
        </g>
    </g>
</svg>
